REM MD5 350971c1d5ff93e4909cfd8d7b1472e6
FILE "UEFA Champions League - Season 1999-2000 (Europe).bin" BINARY
  TRACK 01 MODE2/2352
    INDEX 01 00:00:00
  TRACK 02 AUDIO
    INDEX 00 56:56:62
    INDEX 01 56:58:62
  TRACK 03 AUDIO
    INDEX 00 63:12:22
    INDEX 01 63:14:22
REM LEADOUT 69:27:57
